<?xml version="1.0" standalone="no"?><!DOCTYPE svg PUBLIC "-//W3C//DTD SVG 1.1//EN" "http://www.w3.org/Graphics/SVG/1.1/DTD/svg11.dtd"><svg t="1543200275885" class="icon" style="" viewBox="0 0 1024 1024" version="1.1" xmlns="http://www.w3.org/2000/svg" p-id="4649" xmlns:xlink="http://www.w3.org/1999/xlink" width="200" height="200"><defs><style type="text/css"></style></defs><path d="M968.533333 445.866667c10.666667-12.8 14.933333-29.866667 10.666667-44.8-4.266667-14.933333-17.066667-27.733333-34.133333-29.866667l-264.533334-53.333333-130.133333-241.066667c-8.533333-14.933333-23.466667-23.466667-38.4-23.466667s-32 8.533333-38.4 23.466667L341.333333 317.866667 78.933333 369.066667c-17.066667 2.133333-29.866667 14.933333-34.133333 29.866666-4.266667 14.933333-2.133333 34.133333 10.666667 44.8l183.466666 200.533334v2.133333L204.8 919.466667c-2.133333 17.066667 4.266667 32 19.2 42.666666 8.533333 6.4 17.066667 8.533333 25.6 8.533334 6.4 0 12.8-2.133333 19.2-4.266667L512 849.066667l243.2 117.333333c14.933333 6.4 32 6.4 44.8-4.266667 12.8-10.666667 21.333333-25.6 19.2-42.666666l-34.133333-270.933334v-2.133333l183.466666-200.533333z m-213.333333 170.666666c-8.533333 10.666667-12.8 23.466667-10.666667 36.266667l34.133334 270.933333c0 2.133333 0 2.133333-2.133334 2.133334L531.2 810.666667c-6.4-2.133333-12.8-4.266667-19.2-4.266667-6.4 0-12.8 2.133333-19.2 4.266667l-243.2 115.2-2.133333-2.133334 34.133333-270.933333c2.133333-12.8-2.133333-25.6-10.666667-36.266667L85.333333 416v-2.133333c0-2.133333 2.133333-2.133333 2.133334-2.133334l262.4-51.2c12.8-2.133333 23.466667-10.666667 29.866666-23.466666l130.133334-238.933334c0-2.133333 2.133333-2.133333 4.266666 0l130.133334 241.066667c6.4 12.8 17.066667 19.2 29.866666 23.466667l262.4 51.2s2.133333 0 2.133334 2.133333v2.133333l-183.466667 198.4z" p-id="4650"></path></svg>